<svg width="40" height="40" viewBox="0 0 40 40" fill="none" xmlns="http://www.w3.org/2000/svg">
<path fill-rule="evenodd" clip-rule="evenodd" d="M15 13C15 10.2386 17.2386 8 20 8C22.7614 8 25 10.2386 25 13C25 15.7614 22.7614 18 20 18C17.2386 18 15 15.7614 15 13ZM20 6C16.134 6 13 9.13401 13 13C13 15.3745 14.1823 17.4728 15.9903 18.7385C10.1744 20.7039 6 26.3674 6 33H8C8 25.7857 13.6304 20 20.5 20C24.0338 20 27.2397 21.531 29.52 24H32.1003C30.1918 21.37 27.466 19.4065 24.3043 18.5206C25.9451 17.2396 27 15.243 27 13C27 9.13401 23.866 6 20 6Z" fill="#868C92"/>
<path d="M30.6423 27.1071L30.5352 34.0711M33.9636 30.4284L26.9996 30.5355" stroke="#868C92" stroke-width="2" stroke-linecap="square"/>
</svg>
